<?xml version="1.0" encoding="utf-8"?>
<!-- Generator: Adobe Illustrator 27.2.0, SVG Export Plug-In . SVG Version: 6.00 Build 0)  -->
<svg version="1.1" id="Capa_1" xmlns="http://www.w3.org/2000/svg" xmlns:xlink="http://www.w3.org/1999/xlink" x="0px" y="0px"
	 viewBox="0 0 338 143" style="enable-background:new 0 0 338 143;" xml:space="preserve">
<style type="text/css">
	.st0{fill:#FFFFFF;}
	.st1{fill:#DDD2AF;}
	.st2{fill:#6CB52D;}
</style>
<g>
	<path class="st0" d="M76.56,57.45c1.48-2.15,3.3-3.83,5.45-5.03c2.15-1.21,4.53-1.81,7.15-1.81c4.91,0,8.76,1.63,11.57,4.9
		c2.8,3.27,4.2,8.32,4.2,15.14v27.97H92.21V70.56c0-3.66-0.59-6.25-1.76-7.78c-1.18-1.52-2.94-2.29-5.29-2.29
		c-1.95,0-3.64,0.31-5.08,0.94c-1.44,0.62-2.61,1.52-3.51,2.68v34.51H63.84V30.65h12.72V57.45z"/>
	<path class="st0" d="M131.55,81.07l0.83,4.36h0.26l0.87-4.36l7.76-29.59h13.29l-16.03,47.15h-12.16l-16.03-47.15h13.29
		L131.55,81.07z"/>
	<path class="st0" d="M229.11,62.94l-4.66-0.13c-1.89,0-3.44,0.39-4.66,1.17c-1.22,0.78-2.15,1.89-2.79,3.31v31.85h-12.68V52h11.81
		l0.57,6.97c1.1-2.47,2.53-4.39,4.29-5.77c1.76-1.38,3.78-2.07,6.08-2.07c0.64,0,1.23,0.05,1.76,0.15c0.54,0.1,1.08,0.22,1.63,0.37
		L229.11,62.94z"/>
	<path class="st0" d="M255.34,100.06c-7.03,0-12.52-2.16-16.47-6.47c-3.95-4.31-5.93-9.87-5.93-16.67v-1.74
		c0-7.06,1.92-12.84,5.75-17.34c3.83-4.5,9.11-6.74,15.82-6.71c6.33,0,11.19,1.94,14.58,5.82c3.38,3.88,5.07,9.1,5.07,15.67v6.58
		h-28.1l-0.13,0.26c0.2,3.22,1.18,5.84,2.94,7.84c1.76,2,4.36,3.01,7.82,3.01c2.85,0,5.26-0.29,7.25-0.87
		c1.99-0.58,4.05-1.47,6.17-2.66l3.44,7.84c-1.89,1.54-4.45,2.83-7.67,3.88C262.66,99.54,259.15,100.06,255.34,100.06z
		 M254.51,60.93c-2.56,0-4.53,0.88-5.9,2.64c-1.38,1.76-2.22,4.09-2.51,6.99l0.09,0.22h15.51v-0.96c0-2.76-0.57-4.93-1.7-6.51
		C258.87,61.72,257.04,60.93,254.51,60.93z"/>
	<path class="st0" d="M309.37,99.15c-0.47-1.08-0.86-2.21-1.2-3.4c-0.33-1.19-0.57-2.41-0.72-3.66c-1.31,2.29-3.04,4.2-5.19,5.71
		c-2.15,1.51-4.71,2.27-7.67,2.27c-4.94,0-8.74-1.27-11.42-3.81c-2.67-2.54-4.01-6.01-4.01-10.39c0-4.62,1.78-8.2,5.34-10.74
		c3.56-2.54,8.75-3.81,15.58-3.81h7.15v-3.75c0-2.27-0.6-4.02-1.79-5.27c-1.19-1.25-2.96-1.87-5.32-1.87c-2.06,0-3.65,0.5-4.77,1.5
		c-1.12,1-1.68,2.37-1.68,4.12h-12.24l-0.09-0.26c-0.2-3.98,1.53-7.42,5.21-10.31c3.67-2.89,8.47-4.33,14.4-4.33
		c5.66,0,10.25,1.42,13.75,4.27c3.5,2.85,5.25,6.93,5.25,12.24v19.48c0,2.21,0.17,4.29,0.5,6.23c0.33,1.95,0.86,3.88,1.59,5.8
		H309.37z M297.74,90.65c2.21,0,4.18-0.55,5.93-1.66c1.74-1.1,2.93-2.38,3.57-3.83v-6.67h-7.15c-2.7,0-4.74,0.67-6.12,2.01
		c-1.38,1.33-2.07,2.98-2.07,4.92c0,1.6,0.52,2.87,1.55,3.81C294.48,90.18,295.91,90.65,297.74,90.65z"/>
	<path class="st0" d="M56.3,76.36c0,6.97-1.61,12.58-4.84,16.82c-3.22,4.24-7.73,6.36-13.51,6.36c-2.47,0-4.66-0.46-6.58-1.37
		c-1.92-0.92-3.56-2.26-4.92-4.03v31.37H13.77V51.48h11.46l0.74,5.58c1.39-2.06,3.07-3.65,5.03-4.77c1.96-1.12,4.25-1.68,6.86-1.68
		c5.84,0,10.37,2.28,13.6,6.84c3.22,4.56,4.84,10.56,4.84,18V76.36z M43.58,75.45c0-4.45-0.74-8.05-2.22-10.81
		c-1.48-2.76-3.75-4.14-6.8-4.14c-1.92,0-3.55,0.39-4.9,1.18c-1.35,0.78-2.42,1.9-3.2,3.35v20.65c0.78,1.34,1.85,2.35,3.2,3.05
		c1.35,0.7,3.01,1.05,4.99,1.05c3.08,0,5.34-1.2,6.78-3.62c1.44-2.41,2.16-5.68,2.16-9.8V75.45z"/>
	<path class="st0" d="M185.23,69.04c0-2.21-0.65-3.97-1.96-5.29c-1.31-1.32-3.07-1.98-5.27-1.98c-3.34,0-5.7,1.29-7.08,3.88
		c-1.38,2.59-2.07,5.97-2.07,10.15v1.31c0,4.1,0.69,7.46,2.07,10.08c1.38,2.63,3.71,3.95,6.99,3.95c2.3,0,4.09-0.81,5.38-2.42
		c1.29-1.61,1.94-3.64,1.94-6.08h11.59l0.09,0.26c0.11,5.4-1.58,9.76-5.1,13.07c-3.51,3.31-8.15,4.97-13.9,4.97
		c-6.94,0-12.31-2.24-16.1-6.73c-3.79-4.49-5.69-10.19-5.69-17.1v-1.31c0-0.16,0.01-0.3,0.02-0.45h-0.02V49.35h11.46l0.61,4.59
		c0.43-0.19,0.86-0.37,1.31-0.53l0,0l0,0c2.51-0.92,5.33-1.4,8.5-1.4c5.4,0,9.93,1.61,13.59,4.82c3.66,3.21,5.43,7.2,5.32,11.96
		l-0.09,0.26H185.23z"/>
	<g>
		<rect x="164.72" y="24.03" class="st1" width="17.11" height="17.1"/>
	</g>
	<rect x="156.03" y="16.44" class="st2" width="12.94" height="7.61"/>
	<polygon class="st0" points="168.96,34.04 168.96,24.02 156.03,24.02 156.03,47.16 194.82,47.16 194.82,34.04 	"/>
</g>
</svg>
